<?xml version="1.0" encoding="utf-8"?>
<!-- Generator: Adobe Illustrator 18.1.1, SVG Export Plug-In . SVG Version: 6.00 Build 0)  -->
<svg version="1.1" id="Layer_1" xmlns="http://www.w3.org/2000/svg" xmlns:xlink="http://www.w3.org/1999/xlink" x="0px" y="0px"
	 viewBox="-229 110 557 360" enable-background="new -229 110 557 360" xml:space="preserve">
<g transform="translate(50,20)">
	<g>
		<rect x="-223" y="126" fill="#FFFFFF" width="481.1" height="279.7"/>
	</g>
	<g transform="translate(0,250)">
		<g transform="translate(15.925925925925926,0)">
			
				<line opacity="0.2" fill="none" stroke="#000000" stroke-dasharray="2,2" enable-background="new    " x1="-221.1" y1="155.7" x2="-221.1" y2="-124"/>
			<text transform="matrix(0.4226 -0.9063 0.9063 0.4226 -230.4631 194.0162)" font-family="'ArialMT'" font-size="13.4257">06:00</text>
		</g>
		<g transform="translate(47.77777777777778,0)">
			
				<line opacity="0.2" fill="none" stroke="#000000" stroke-dasharray="2,2" enable-background="new    " x1="-217.3" y1="155.7" x2="-217.3" y2="-124"/>
			<text transform="matrix(0.4226 -0.9063 0.9063 0.4226 -226.6796 194.0167)" font-family="'ArialMT'" font-size="13.4257">07:00</text>
		</g>
		<g transform="translate(79.62962962962962,0)">
			
				<line opacity="0.2" fill="none" stroke="#000000" stroke-dasharray="2,2" enable-background="new    " x1="-213.6" y1="155.7" x2="-213.6" y2="-124"/>
			<text transform="matrix(0.4226 -0.9063 0.9063 0.4226 -222.8946 194.0164)" font-family="'ArialMT'" font-size="13.4257">08:00</text>
		</g>
		<g transform="translate(111.48148148148148,0)">
			
				<line opacity="0.2" fill="none" stroke="#000000" stroke-dasharray="2,2" enable-background="new    " x1="-209.8" y1="155.7" x2="-209.8" y2="-124"/>
			<text transform="matrix(0.4226 -0.9063 0.9063 0.4226 -219.1105 194.0161)" font-family="'ArialMT'" font-size="13.4257">09:00</text>
		</g>
		<g transform="translate(143.33333333333331,0)">
			
				<line opacity="0.2" fill="none" stroke="#000000" stroke-dasharray="2,2" enable-background="new    " x1="-206" y1="155.7" x2="-206" y2="-124"/>
			<text transform="matrix(0.4226 -0.9063 0.9063 0.4226 -215.3265 194.0157)" font-family="'ArialMT'" font-size="13.4257">10:00</text>
		</g>
		<g transform="translate(175.18518518518516,0)">
			
				<line opacity="0.2" fill="none" stroke="#000000" stroke-dasharray="2,2" enable-background="new    " x1="-202.2" y1="155.7" x2="-202.2" y2="-124"/>
			<text transform="matrix(0.4226 -0.9063 0.9063 0.4226 -211.1212 193.1115)" font-family="'ArialMT'" font-size="13.4257">11:00</text>
		</g>
		<g transform="translate(207.03703703703704,0)">
			
				<line opacity="0.2" fill="none" stroke="#000000" stroke-dasharray="2,2" enable-background="new    " x1="-198.4" y1="155.7" x2="-198.4" y2="-124"/>
			<text transform="matrix(0.4226 -0.9063 0.9063 0.4226 -207.758 194.0161)" font-family="'ArialMT'" font-size="13.4257">12:00</text>
		</g>
		<g transform="translate(238.88888888888889,0)">
			
				<line opacity="0.2" fill="none" stroke="#000000" stroke-dasharray="2,2" enable-background="new    " x1="-194.6" y1="155.7" x2="-194.6" y2="-124"/>
			<text transform="matrix(0.4226 -0.9063 0.9063 0.4226 -203.9739 194.0155)" font-family="'ArialMT'" font-size="13.4257">13:00</text>
		</g>
		<g transform="translate(270.74074074074076,0)">
			
				<line opacity="0.2" fill="none" stroke="#000000" stroke-dasharray="2,2" enable-background="new    " x1="-190.9" y1="155.7" x2="-190.9" y2="-124"/>
			<text transform="matrix(0.4226 -0.9063 0.9063 0.4226 -200.1895 194.0164)" font-family="'ArialMT'" font-size="13.4257">14:00</text>
		</g>
		<g transform="translate(302.5925925925926,0)">
			
				<line opacity="0.2" fill="none" stroke="#000000" stroke-dasharray="2,2" enable-background="new    " x1="-187.1" y1="155.7" x2="-187.1" y2="-124"/>
			<text transform="matrix(0.4226 -0.9063 0.9063 0.4226 -196.4047 194.0164)" font-family="'ArialMT'" font-size="13.4257">15:00</text>
		</g>
		<g transform="translate(334.44444444444446,0)">
			
				<line opacity="0.2" fill="none" stroke="#000000" stroke-dasharray="2,2" enable-background="new    " x1="-183.3" y1="155.7" x2="-183.3" y2="-124"/>
			<text transform="matrix(0.4226 -0.9063 0.9063 0.4226 -192.6205 194.0159)" font-family="'ArialMT'" font-size="13.4257">16:00</text>
		</g>
		<g transform="translate(366.2962962962963,0)">
			
				<line opacity="0.2" fill="none" stroke="#000000" stroke-dasharray="2,2" enable-background="new    " x1="-179.5" y1="155.7" x2="-179.5" y2="-124"/>
			<text transform="matrix(0.4226 -0.9063 0.9063 0.4226 -188.837 194.0163)" font-family="'ArialMT'" font-size="13.4257">17:00</text>
		</g>
		<g transform="translate(398.14814814814815,0)">
			
				<line opacity="0.2" fill="none" stroke="#000000" stroke-dasharray="2,2" enable-background="new    " x1="-175.7" y1="155.7" x2="-175.7" y2="-124"/>
			<text transform="matrix(0.4226 -0.9063 0.9063 0.4226 -185.0522 194.0163)" font-family="'ArialMT'" font-size="13.4257">18:00</text>
		</g>
		<g transform="translate(430,0)">
			
				<line opacity="0.2" fill="none" stroke="#000000" stroke-dasharray="2,2" enable-background="new    " x1="-171.9" y1="155.7" x2="-171.9" y2="-124"/>
			<text transform="matrix(0.4226 -0.9063 0.9063 0.4226 -181.2681 194.0158)" font-family="'ArialMT'" font-size="13.4257">19:00</text>
		</g>
		<path display="none" fill="none" stroke="#000000" d="M-223-124v279.7h481.1V-124"/>
	</g>
	<g>
		<g transform="translate(0,250)">
			
				<line opacity="0.2" fill="none" stroke="#000000" stroke-dasharray="2,2" enable-background="new    " x1="-223" y1="155.7" x2="258.1" y2="155.7"/>
			<text transform="matrix(1 0 0 1 -233.8472 159.999)" font-family="'ArialMT'" font-size="13.4257">0</text>
		</g>
		<g transform="translate(0,230)">
			
				<line opacity="0.2" fill="none" stroke="#000000" stroke-dasharray="2,2" enable-background="new    " x1="-223" y1="153.3" x2="258.1" y2="153.3"/>
			<text transform="matrix(1 0 0 1 -233.8472 157.623)" font-family="'ArialMT'" font-size="13.4257">2</text>
		</g>
		<g transform="translate(0,210)">
			
				<line opacity="0.2" fill="none" stroke="#000000" stroke-dasharray="2,2" enable-background="new    " x1="-223" y1="150.9" x2="258.1" y2="150.9"/>
			<text transform="matrix(1 0 0 1 -233.8472 155.2461)" font-family="'ArialMT'" font-size="13.4257">4</text>
		</g>
		<g transform="translate(0,190)">
			
				<line opacity="0.2" fill="none" stroke="#000000" stroke-dasharray="2,2" enable-background="new    " x1="-223" y1="148.6" x2="258.1" y2="148.6"/>
			<text transform="matrix(1 0 0 1 -233.8472 152.8701)" font-family="'ArialMT'" font-size="13.4257">6</text>
		</g>
		<g transform="translate(0,169.99999999999997)">
			
				<line opacity="0.2" fill="none" stroke="#000000" stroke-dasharray="2,2" enable-background="new    " x1="-223" y1="146.2" x2="258.1" y2="146.2"/>
			<text transform="matrix(1 0 0 1 -233.8472 150.494)" font-family="'ArialMT'" font-size="13.4257">8</text>
		</g>
		<g transform="translate(0,150)">
			
				<line opacity="0.2" fill="none" stroke="#000000" stroke-dasharray="2,2" enable-background="new    " x1="-223" y1="143.8" x2="258.1" y2="143.8"/>
			<text transform="matrix(1 0 0 1 -241.314 148.1182)" font-family="'ArialMT'" font-size="13.4257">10</text>
		</g>
		<g transform="translate(0,130)">
			
				<line opacity="0.2" fill="none" stroke="#000000" stroke-dasharray="2,2" enable-background="new    " x1="-223" y1="141.4" x2="258.1" y2="141.4"/>
			<text transform="matrix(1 0 0 1 -241.314 145.7421)" font-family="'ArialMT'" font-size="13.4257">12</text>
		</g>
		<g transform="translate(0,109.99999999999999)">
			
				<line opacity="0.2" fill="none" stroke="#000000" stroke-dasharray="2,2" enable-background="new    " x1="-223" y1="139.1" x2="258.1" y2="139.1"/>
			<text transform="matrix(1 0 0 1 -241.314 143.3656)" font-family="'ArialMT'" font-size="13.4257">14</text>
		</g>
		<g transform="translate(0,90)">
			
				<line opacity="0.2" fill="none" stroke="#000000" stroke-dasharray="2,2" enable-background="new    " x1="-223" y1="136.7" x2="258.1" y2="136.7"/>
			<text transform="matrix(1 0 0 1 -241.314 140.9892)" font-family="'ArialMT'" font-size="13.4257">16</text>
		</g>
		<g transform="translate(0,70)">
			
				<line opacity="0.2" fill="none" stroke="#000000" stroke-dasharray="2,2" enable-background="new    " x1="-223" y1="134.3" x2="258.1" y2="134.3"/>
			<text transform="matrix(1 0 0 1 -241.314 138.6132)" font-family="'ArialMT'" font-size="13.4257">18</text>
		</g>
		<g transform="translate(0,49.999999999999986)">
			
				<line opacity="0.2" fill="none" stroke="#000000" stroke-dasharray="2,2" enable-background="new    " x1="-223" y1="131.9" x2="258.1" y2="131.9"/>
			<text transform="matrix(1 0 0 1 -241.314 136.2372)" font-family="'ArialMT'" font-size="13.4257">20</text>
		</g>
		<g transform="translate(0,30)">
			
				<line opacity="0.2" fill="none" stroke="#000000" stroke-dasharray="2,2" enable-background="new    " x1="-223" y1="129.6" x2="258.1" y2="129.6"/>
			<text transform="matrix(1 0 0 1 -241.314 133.8608)" font-family="'ArialMT'" font-size="13.4257">22</text>
		</g>
		<g transform="translate(0,10.000000000000009)">
			
				<line opacity="0.2" fill="none" stroke="#000000" stroke-dasharray="2,2" enable-background="new    " x1="-223" y1="127.2" x2="258.1" y2="127.2"/>
			<text transform="matrix(1 0 0 1 -241.314 131.4848)" font-family="'ArialMT'" font-size="13.4257">24</text>
		</g>
		<path display="none" fill="none" stroke="#000000" d="M258.1,126H-223v279.7h481.1"/>
		<text transform="matrix(6.123234e-17 -1 1 6.123234e-17 -267.7759 320.3146)" font-family="'ArialMT'" font-size="13.4257">Price (kr) (8kr = $1)</text>
	</g>
	<g opacity="0.6">
		<path fill="none" stroke="#03A9F4" stroke-width="1.9" d="M-205.2,405.7h17.8V293.8h17.8v-55.9h17.8v-55.9h35.6v55.9h17.8v55.9
			h231.6v-55.9h17.8v-55.9h53.5v55.9h17.8v55.9h17.8v111.9h17.8l0,0"/>
	</g>
	<g opacity="0.6">
		<path fill="none" stroke="#E91E63" stroke-width="1.9" d="M-223,405.7h17.8V305h17.8v-78.3h17.8v-67.1h35.6v67.1h17.8V305h231.6
			v-78.3h17.8v-67.1h53.5v67.1h35.6V305h17.8v100.7h17.8l0,0"/>
	</g>
</g>
<rect x="-183.8" y="118.1" fill="#E91E63" width="21.8" height="21.8"/>
<text transform="matrix(1 0 0 1 -154.0798 135.9668)" font-family="'MyriadPro-Regular'" font-size="15.9033">Gothenburg</text>
<rect x="-61" y="118.1" fill="#03A9F4" width="21.8" height="21.8"/>
<text transform="matrix(1 0 0 1 -31.1168 135.9668)" font-family="'MyriadPro-Regular'" font-size="15.9033">Stockholm</text>
</svg>
